<?xml version="1.0" standalone="no"?>
<!DOCTYPE svg PUBLIC "-//W3C//DTD SVG 20010904//EN"
 "http://www.w3.org/TR/2001/REC-SVG-20010904/DTD/svg10.dtd">
<svg version="1.0" xmlns="http://www.w3.org/2000/svg"
 width="768.000000pt" height="1024.000000pt" viewBox="0 0 768.000000 1024.000000"
 preserveAspectRatio="xMidYMid meet">

<g transform="translate(0.000000,1024.000000) scale(0.100000,-0.100000)"
fill="#000000" stroke="none">
<path d="M4310 8284 c-78 -10 -233 -38 -250 -44 -3 -1 -9 -2 -13 -1 -8 2 -57
-13 -102 -29 -11 -4 -54 -20 -95 -35 -150 -54 -158 -57 -370 -173 -138 -74
-302 -187 -475 -326 -55 -44 -102 -82 -105 -85 -3 -4 -57 -52 -120 -107 -63
-56 -143 -131 -176 -167 -34 -35 -66 -66 -70 -68 -21 -9 -204 -215 -314 -353
-8 -10 -31 -37 -50 -60 -19 -23 -51 -66 -70 -96 -19 -30 -37 -57 -41 -60 -34
-26 -252 -382 -331 -542 -17 -36 -25 -78 -11 -65 3 4 16 1 27 -7 12 -7 37 -16
56 -20 19 -4 44 -11 55 -16 21 -8 122 -36 165 -44 14 -3 79 -16 145 -30 282
-58 545 -73 855 -49 96 7 218 23 270 34 52 11 118 24 145 29 54 10 207 54 240
69 11 6 54 22 95 36 76 26 408 188 510 248 88 51 172 111 303 216 156 125 283
257 417 435 19 25 45 58 57 73 21 26 35 49 116 197 57 104 96 242 97 340 0 61
-27 212 -45 246 -7 14 -28 56 -46 94 -18 37 -39 70 -46 73 -7 3 -13 11 -13 17
0 50 -226 226 -290 226 -9 0 -20 3 -24 7 -24 24 -104 35 -276 38 -102 2 -201
1 -220 -1z"/>
<path d="M5566 6845 c-35 -54 -337 -345 -408 -393 -13 -9 -48 -37 -78 -62 -30
-26 -86 -69 -125 -96 -38 -26 -72 -51 -75 -54 -7 -7 -84 -57 -125 -80 -19 -11
-52 -30 -72 -41 -21 -12 -40 -24 -43 -28 -4 -5 -44 -25 -145 -73 -46 -22 -79
-42 -87 -53 -4 -5 -8 -6 -8 -2 0 5 -15 -3 -32 -17 -18 -15 -37 -30 -43 -34
-22 -16 -243 -121 -280 -133 -22 -7 -45 -17 -51 -21 -18 -13 -154 -57 -224
-73 -36 -8 -81 -19 -100 -24 -185 -51 -444 -81 -701 -81 -107 0 -220 4 -250 9
-30 6 -95 12 -145 15 -113 7 -222 22 -330 46 -45 10 -85 15 -88 12 -3 -2 -12
1 -20 7 -8 7 -19 10 -24 7 -8 -5 -70 10 -237 59 -27 8 -97 28 -155 44 -58 16
-112 32 -121 35 -17 7 -22 -3 -79 -149 -41 -105 -114 -358 -134 -465 -9 -47
-20 -105 -26 -130 -34 -156 -49 -500 -30 -675 13 -112 27 -216 35 -245 13 -54
28 -106 33 -120 8 -22 8 -23 16 -55 5 -16 15 -50 23 -75 8 -25 16 -52 17 -60
4 -28 54 -125 73 -140 10 -9 27 -16 38 -17 190 -8 276 -13 298 -18 15 -4 27
-3 27 1 0 5 38 10 84 11 86 3 113 6 201 23 28 5 66 12 85 15 40 6 59 10 80 17
8 3 60 20 115 38 55 18 111 40 125 48 14 9 29 15 34 14 4 -2 20 5 35 15 14 10
35 23 46 29 11 6 43 23 70 39 28 15 59 36 71 46 11 11 23 19 27 19 4 0 22 13
40 29 17 16 50 42 72 56 51 35 200 187 257 262 63 84 75 105 102 177 21 58 22
75 16 148 -10 105 -34 158 -104 231 -124 128 -360 180 -691 151 -38 -3 -78
-10 -87 -15 -9 -5 -32 -9 -50 -9 -18 0 -45 -6 -59 -14 -14 -7 -43 -16 -65 -20
-59 -11 -175 -56 -214 -85 -19 -14 -63 -55 -98 -91 l-63 -65 -99 100 c-89 89
-119 135 -90 135 5 0 47 18 92 39 78 37 177 73 278 100 25 7 59 16 75 21 35
11 52 14 200 39 85 15 154 19 306 18 118 -1 202 -6 210 -12 8 -6 35 -12 61
-13 56 -3 144 -27 288 -77 41 -15 82 -33 90 -40 8 -7 27 -17 43 -20 15 -4 29
-11 32 -15 3 -5 26 -18 53 -31 40 -19 114 -85 160 -143 21 -26 48 -96 67 -174
14 -59 16 -93 11 -170 -4 -53 -11 -101 -15 -107 -4 -5 -13 -30 -20 -55 -17
-64 -46 -125 -94 -200 -52 -81 -49 -77 -127 -162 -121 -131 -394 -349 -510
-406 -14 -7 -50 -28 -80 -47 -30 -19 -68 -42 -85 -50 -29 -15 -46 -24 -82 -45
-10 -6 -29 -15 -43 -21 -23 -11 -131 -61 -292 -137 -36 -18 -73 -32 -82 -32
-8 0 -17 -4 -20 -9 -3 -5 -23 -12 -43 -16 -21 -4 -42 -10 -48 -15 -5 -5 -39
-14 -75 -20 -36 -7 -73 -16 -82 -21 -10 -5 -40 -9 -68 -9 -33 0 -50 -4 -50
-12 0 -18 90 -109 101 -102 5 3 9 0 9 -7 0 -6 11 -22 24 -34 14 -13 22 -26 19
-29 -4 -3 0 -6 8 -6 8 0 25 -12 38 -25 13 -14 29 -25 35 -25 7 0 18 -12 24
-26 7 -14 16 -23 21 -20 4 3 17 -4 27 -15 11 -12 28 -25 39 -31 31 -14 63 -33
82 -50 16 -13 116 -62 213 -105 19 -8 47 -22 62 -29 14 -8 35 -14 45 -14 11 0
28 -9 37 -19 18 -19 61 -37 50 -20 -3 5 -1 9 5 9 5 0 12 -4 15 -9 5 -8 61 -23
91 -26 6 0 15 -4 22 -8 6 -4 33 -10 60 -13 89 -10 98 -12 116 -19 10 -4 36 -5
57 -1 22 3 40 3 40 -2 0 -11 259 -5 273 6 7 6 38 9 69 7 32 -2 60 1 63 6 4 5
15 9 26 9 10 0 19 5 19 11 0 7 11 8 30 4 19 -4 30 -3 30 4 0 6 20 11 45 11 31
0 58 8 84 24 24 15 47 23 60 19 12 -3 21 -1 21 6 0 6 11 11 25 11 22 0 49 17
92 58 10 10 17 11 27 3 7 -6 16 -7 22 -2 19 19 85 51 104 51 11 0 20 7 20 15
0 8 5 15 10 15 21 0 25 2 32 14 4 7 8 95 9 197 1 101 6 229 10 284 4 55 10
138 14 185 9 124 69 505 95 601 6 20 15 61 20 90 14 78 91 337 138 464 118
325 226 561 354 773 37 61 68 115 68 118 0 3 18 32 40 64 22 32 40 66 40 74 0
9 4 16 9 16 4 0 24 24 44 53 110 159 135 192 296 387 76 93 297 327 358 380
28 25 54 51 57 58 4 10 -22 92 -64 197 -5 11 -19 49 -32 84 -13 36 -28 66 -34
68 -6 2 -19 -8 -28 -22z"/>
<path d="M5686 6169 c-181 -187 -289 -313 -365 -428 -13 -20 -28 -37 -33 -39
-4 -2 -8 -8 -8 -13 0 -6 -4 -15 -10 -22 -167 -205 -349 -566 -459 -910 -46
-146 -55 -178 -100 -367 -23 -101 -40 -231 -61 -480 -9 -118 -5 -645 7 -722
l8 -57 35 30 c62 54 164 156 200 199 19 23 44 52 55 65 40 44 65 75 65 80 0 2
10 15 23 29 43 47 74 90 199 271 47 69 135 214 161 265 19 38 28 54 45 85 129
225 277 629 327 890 69 363 78 459 71 760 -3 176 -10 281 -20 325 -9 36 -15
79 -16 97 0 17 -5 35 -11 39 -7 4 -54 -37 -113 -97z"/>
</g>
</svg>
